<?xml version="1.0" encoding="utf-8"?>
<svg version="1.1" width="8334px" height="8334px" style="shape-rendering:geometricPrecision; text-rendering:geometricPrecision; image-rendering:optimizeQuality; fill-rule:evenodd; clip-rule:evenodd" xmlns="http://www.w3.org/2000/svg">
  <g>
    <path style="opacity:0.979" fill="#c8c39b" d="M 1857.5 3768.5 C 3396.5 3768.5 4935.5 3768.5 6474.5 3768.5 C 6474.5 4033.5 6474.5 4298.5 6474.5 4563.5 C 4935.5 4563.5 3396.5 4563.5 1857.5 4563.5 C 1857.5 4298.5 1857.5 4033.5 1857.5 3768.5 Z M 1892.5 3803.5 C 3408.5 3803.5 4924.5 3803.5 6440.5 3803.5 C 6440.5 4045.17 6440.5 4286.83 6440.5 4528.5 C 6332.83 4528.5 6225.17 4528.5 6117.5 4528.5 C 6117.5 4417.5 6117.5 4306.5 6117.5 4195.5 C 6137.84 4195.33 6158.17 4195.5 6178.5 4196 C 6196.37 4227.04 6214.03 4258.2 6231.5 4289.5 C 6245.5 4290.83 6259.5 4290.83 6273.5 4289.5 C 6254.75 4255.67 6235.75 4222 6216.5 4188.5 C 6253.95 4167.26 6269.12 4135.26 6262 4092.5 C 6251.03 4054.53 6225.87 4033.7 6186.5 4030 C 6151.5 4029.5 6116.5 4029.33 6081.5 4029.5 C 6081.5 4041.83 6081.5 4054.17 6081.5 4066.5 C 6119.21 4066.02 6156.88 4066.52 6194.5 4068 C 6215.44 4075.62 6226.44 4090.62 6227.5 4113 C 6225.21 4139.62 6210.88 4154.95 6184.5 4159 C 6150.17 4159.5 6115.83 4159.67 6081.5 4159.5 C 6081.5 4282.5 6081.5 4405.5 6081.5 4528.5 C 4903.83 4528.5 3726.17 4528.5 2548.5 4528.5 C 2548.5 4428.83 2548.5 4329.17 2548.5 4229.5 C 2536.17 4229.5 2523.83 4229.5 2511.5 4229.5 C 2511.5 4329.17 2511.5 4428.83 2511.5 4528.5 C 2305.17 4528.5 2098.83 4528.5 1892.5 4528.5 C 1892.5 4286.83 1892.5 4045.17 1892.5 3803.5 Z"/>
  </g>
  <g>
    <path style="opacity:0.974" fill="#c8c39b" d="M 3879.5,4023.5 C 3924.3,4024.64 3946.97,4047.64 3947.5,4092.5C 3935.5,4092.5 3923.5,4092.5 3911.5,4092.5C 3912.23,4080.83 3908.23,4071.33 3899.5,4064C 3882.82,4056.67 3870.66,4061.17 3863,4077.5C 3860.72,4087.14 3861.72,4096.48 3866,4105.5C 3869.16,4111.83 3872.83,4117.83 3877,4123.5C 3903.24,4154.07 3931.24,4183.07 3961,4210.5C 3965.93,4198.12 3969.93,4185.45 3973,4172.5C 3984.07,4174.58 3995.23,4176.25 4006.5,4177.5C 4004.79,4198.13 3999.12,4217.63 3989.5,4236C 4001.95,4247.95 4014.62,4259.78 4027.5,4271.5C 4019.51,4280.83 4011.17,4289.83 4002.5,4298.5C 3990.85,4288.02 3979.35,4277.35 3968,4266.5C 3947.12,4291.52 3920.29,4305.36 3887.5,4308C 3854.25,4311.48 3826.09,4301.31 3803,4277.5C 3784.77,4253.11 3779.77,4226.11 3788,4196.5C 3794.32,4177.51 3803.99,4160.51 3817,4145.5C 3823.54,4139.29 3829.71,4132.79 3835.5,4126C 3822.85,4102.03 3822.35,4077.86 3834,4053.5C 3844.54,4036.46 3859.7,4026.46 3879.5,4023.5 Z M 3855.5,4157.5 C 3850.84,4162.33 3846.34,4167.33 3842,4172.5C 3831.25,4185.33 3824.25,4200 3821,4216.5C 3821.72,4248.24 3837.89,4266.74 3869.5,4272C 3898.15,4273.84 3921.82,4263.84 3940.5,4242C 3911.77,4215.27 3884.44,4187.27 3858.5,4158C 3857.55,4157.52 3856.55,4157.35 3855.5,4157.5 Z"/>
  </g>
  <g>
    <path style="opacity:0.973" fill="#c8c39b" d="M 2177.5,4027.5 C 2230.12,4025.8 2270.12,4047.13 2297.5,4091.5C 2287.22,4097.22 2276.72,4102.56 2266,4107.5C 2243.01,4073.93 2211.17,4059.76 2170.5,4065C 2129.63,4075.21 2105.13,4101.04 2097,4142.5C 2091.57,4178.64 2101.73,4209.47 2127.5,4235C 2164.86,4263.26 2203.19,4264.59 2242.5,4239C 2251.39,4231.11 2259.22,4222.28 2266,4212.5C 2276.89,4217.36 2287.39,4222.86 2297.5,4229C 2276.4,4264.91 2245.06,4285.91 2203.5,4292C 2142.83,4296.76 2098.66,4272.26 2071,4218.5C 2050.37,4167.82 2055.7,4120.16 2087,4075.5C 2110.52,4046.99 2140.68,4030.99 2177.5,4027.5 Z"/>
  </g>
  <g>
    <path style="opacity:0.972" fill="#c8c39b" d="M 2881.5,4027.5 C 2933.96,4026.06 2973.96,4047.4 3001.5,4091.5C 2991.22,4097.22 2980.72,4102.56 2970,4107.5C 2941.46,4067.65 2903.63,4055.15 2856.5,4070C 2828.27,4082.91 2810.1,4104.41 2802,4134.5C 2793.16,4175.3 2803.99,4209.8 2834.5,4238C 2870.69,4263.06 2907.36,4263.72 2944.5,4240C 2954.44,4232.23 2962.77,4223.06 2969.5,4212.5C 2980.32,4217.74 2990.99,4223.24 3001.5,4229C 2966.47,4282.66 2917.47,4302.32 2854.5,4288C 2801.36,4269.52 2770.86,4232.35 2763,4176.5C 2757.81,4119.97 2778.64,4076.14 2825.5,4045C 2843.07,4035.2 2861.74,4029.36 2881.5,4027.5 Z"/>
  </g>
  <g>
    <path style="opacity:0.975" fill="#c8c39b" d="M 4905.5,4027.5 C 4909.55,4027.18 4913.55,4027.51 4917.5,4028.5C 4955.79,4078.12 4994.45,4127.45 5033.5,4176.5C 5072.66,4127.17 5111.66,4077.67 5150.5,4028C 5154.15,4027.5 5157.82,4027.33 5161.5,4027.5C 5161.5,4115.17 5161.5,4202.83 5161.5,4290.5C 5149.5,4290.5 5137.5,4290.5 5125.5,4290.5C 5125.67,4233.17 5125.5,4175.83 5125,4118.5C 5096.17,4155.5 5067.33,4192.5 5038.5,4229.5C 5034.73,4231.02 5031.23,4230.69 5028,4228.5C 4999.91,4191.99 4971.57,4155.65 4943,4119.5C 4942.5,4176.5 4942.33,4233.5 4942.5,4290.5C 4930.17,4290.5 4917.83,4290.5 4905.5,4290.5C 4905.5,4202.83 4905.5,4115.17 4905.5,4027.5 Z"/>
  </g>
  <g>
    <path style="opacity:0.975" fill="#c8c39b" d="M 5326.5,4027.5 C 5330.18,4027.33 5333.85,4027.5 5337.5,4028C 5376.34,4077.67 5415.34,4127.17 5454.5,4176.5C 5493.66,4127.17 5532.66,4077.67 5571.5,4028C 5575.15,4027.5 5578.82,4027.33 5582.5,4027.5C 5582.5,4115.17 5582.5,4202.83 5582.5,4290.5C 5570.5,4290.5 5558.5,4290.5 5546.5,4290.5C 5546.67,4233.17 5546.5,4175.83 5546,4118.5C 5516.83,4155.67 5487.67,4192.83 5458.5,4230C 5454.41,4231.23 5450.91,4230.39 5448,4227.5C 5420,4191.5 5392,4155.5 5364,4119.5C 5363.5,4176.5 5363.33,4233.5 5363.5,4290.5C 5351.17,4290.5 5338.83,4290.5 5326.5,4290.5C 5326.5,4202.83 5326.5,4115.17 5326.5,4027.5 Z"/>
  </g>
  <g>
    <path style="opacity:0.968" fill="#c8c39b" d="M 2421.5,4029.5 C 2435.17,4029.33 2448.84,4029.5 2462.5,4030C 2484.71,4069.58 2507.04,4109.08 2529.5,4148.5C 2551.83,4109.17 2574.17,4069.83 2596.5,4030.5C 2610.5,4029.17 2624.5,4029.17 2638.5,4030.5C 2607.88,4085.58 2576.88,4140.41 2545.5,4195C 2534.59,4195.82 2523.76,4195.65 2513,4194.5C 2481.97,4139.77 2451.47,4084.77 2421.5,4029.5 Z"/>
  </g>
  <g>
    <path style="opacity:0.949" fill="#c8c39b" d="M 3149.5,4029.5 C 3161.5,4029.5 3173.5,4029.5 3185.5,4029.5C 3185.5,4045.83 3185.5,4062.17 3185.5,4078.5C 3173.5,4078.5 3161.5,4078.5 3149.5,4078.5C 3149.5,4062.17 3149.5,4045.83 3149.5,4029.5 Z"/>
  </g>
  <g>
    <path style="opacity:0.953" fill="#c8c39b" d="M 3456.5,4029.5 C 3514.83,4029.5 3573.17,4029.5 3631.5,4029.5C 3631.5,4041.83 3631.5,4054.17 3631.5,4066.5C 3573.17,4066.5 3514.83,4066.5 3456.5,4066.5C 3456.5,4054.17 3456.5,4041.83 3456.5,4029.5 Z"/>
  </g>
  <g>
    <path style="opacity:0.978" fill="#c8c39b" d="M 4178.5,4029.5 C 4190.5,4029.5 4202.5,4029.5 4214.5,4029.5C 4214.5,4067.17 4214.5,4104.83 4214.5,4142.5C 4269.17,4142.5 4323.83,4142.5 4378.5,4142.5C 4378.5,4191.83 4378.5,4241.17 4378.5,4290.5C 4366.5,4290.5 4354.5,4290.5 4342.5,4290.5C 4342.5,4253.17 4342.5,4215.83 4342.5,4178.5C 4287.83,4178.5 4233.17,4178.5 4178.5,4178.5C 4178.5,4128.83 4178.5,4079.17 4178.5,4029.5 Z"/>
  </g>
  <g>
    <path style="opacity:0.964" fill="#c8c39b" d="M 4342.5,4029.5 C 4354.5,4029.5 4366.5,4029.5 4378.5,4029.5C 4378.5,4055.5 4378.5,4081.5 4378.5,4107.5C 4366.5,4107.5 4354.5,4107.5 4342.5,4107.5C 4342.5,4081.5 4342.5,4055.5 4342.5,4029.5 Z"/>
  </g>
  <g>
    <path style="opacity:0.972" fill="#c8c39b" d="M 4626.5,4029.5 C 4636.84,4029.33 4647.17,4029.5 4657.5,4030C 4690.66,4116.66 4723.33,4203.49 4755.5,4290.5C 4742.17,4290.5 4728.83,4290.5 4715.5,4290.5C 4691.69,4224.23 4667.19,4158.23 4642,4092.5C 4617.5,4158.17 4593,4223.83 4568.5,4289.5C 4555.17,4290.83 4541.83,4290.83 4528.5,4289.5C 4561.37,4202.88 4594.04,4116.21 4626.5,4029.5 Z"/>
  </g>
  <g>
    <path style="opacity:0.953" fill="#c8c39b" d="M 5745.5,4029.5 C 5803.83,4029.5 5862.17,4029.5 5920.5,4029.5C 5920.5,4041.83 5920.5,4054.17 5920.5,4066.5C 5862.17,4066.5 5803.83,4066.5 5745.5,4066.5C 5745.5,4054.17 5745.5,4041.83 5745.5,4029.5 Z"/>
  </g>
  <g>
    <path style="opacity:0.97" fill="#c8c39b" d="M 3149.5,4100.5 C 3161.5,4100.5 3173.5,4100.5 3185.5,4100.5C 3185.67,4144.5 3185.5,4188.5 3185,4232.5C 3173.65,4244.01 3162.15,4255.35 3150.5,4266.5C 3149.5,4211.17 3149.17,4155.84 3149.5,4100.5 Z"/>
  </g>
  <g>
    <path style="opacity:0.964" fill="#c8c39b" d="M 2184.5,4135.5 C 2204.45,4137.62 2212.95,4148.62 2210,4168.5C 2201.95,4185.07 2189.45,4189.57 2172.5,4182C 2160.42,4171.76 2158.25,4159.6 2166,4145.5C 2170.92,4139.63 2177.08,4136.29 2184.5,4135.5 Z"/>
  </g>
  <g>
    <path style="opacity:0.964" fill="#c8c39b" d="M 2888.5,4135.5 C 2908.66,4138.15 2916.83,4149.48 2913,4169.5C 2907.31,4182.41 2897.48,4187.57 2883.5,4185C 2866.81,4178.44 2861.31,4166.61 2867,4149.5C 2871.82,4141.17 2878.99,4136.51 2888.5,4135.5 Z"/>
  </g>
  <g>
    <path style="opacity:0.972" fill="#c8c39b" d="M 3456.5,4142.5 C 3511.17,4142.5 3565.83,4142.5 3620.5,4142.5C 3620.5,4154.5 3620.5,4166.5 3620.5,4178.5C 3565.83,4178.5 3511.17,4178.5 3456.5,4178.5C 3456.5,4166.5 3456.5,4154.5 3456.5,4142.5 Z"/>
  </g>
  <g>
    <path style="opacity:0.976" fill="#c8c39b" d="M 5745.5,4142.5 C 5799.83,4142.5 5854.17,4142.5 5908.5,4142.5C 5908.5,4154.5 5908.5,4166.5 5908.5,4178.5C 5854.17,4178.5 5799.83,4178.5 5745.5,4178.5C 5745.5,4166.5 5745.5,4154.5 5745.5,4142.5 Z"/>
  </g>
  <g>
    <path style="opacity:0.97" fill="#c8c39b" d="M 4178.5,4212.5 C 4190.5,4212.5 4202.5,4212.5 4214.5,4212.5C 4214.5,4238.5 4214.5,4264.5 4214.5,4290.5C 4202.5,4290.5 4190.5,4290.5 4178.5,4290.5C 4178.5,4264.5 4178.5,4238.5 4178.5,4212.5 Z"/>
  </g>
  <g>
    <path style="opacity:0.961" fill="#c8c39b" d="M 3456.5,4253.5 C 3515.5,4253.5 3574.5,4253.5 3633.5,4253.5C 3633.5,4265.83 3633.5,4278.17 3633.5,4290.5C 3574.5,4290.5 3515.5,4290.5 3456.5,4290.5C 3456.5,4278.17 3456.5,4265.83 3456.5,4253.5 Z"/>
  </g>
  <g>
    <path style="opacity:0.959" fill="#c8c39b" d="M 5745.5,4253.5 C 5804.5,4253.5 5863.5,4253.5 5922.5,4253.5C 5922.5,4265.83 5922.5,4278.17 5922.5,4290.5C 5863.5,4290.5 5804.5,4290.5 5745.5,4290.5C 5745.5,4278.17 5745.5,4265.83 5745.5,4253.5 Z"/>
  </g>
  <g>
    <path style="opacity:0.967" fill="#c8c39b" d="M 3198.5,4254.5 C 3235.83,4254.5 3273.17,4254.5 3310.5,4254.5C 3310.5,4266.5 3310.5,4278.5 3310.5,4290.5C 3261.5,4290.67 3212.5,4290.5 3163.5,4290C 3175.37,4278.3 3187.04,4266.47 3198.5,4254.5 Z"/>
  </g>
</svg>
